<?xml version="1.0" standalone="no"?>
<!DOCTYPE svg PUBLIC "-//W3C//DTD SVG 20010904//EN"
 "http://www.w3.org/TR/2001/REC-SVG-20010904/DTD/svg10.dtd">
<svg version="1.0" xmlns="http://www.w3.org/2000/svg"
 width="260.000000pt" height="260.000000pt" viewBox="0 0 260.000000 260.000000"
 preserveAspectRatio="xMidYMid meet">
<metadata>
Created by potrace 1.11, written by Peter Selinger 2001-2013
</metadata>
<g transform="translate(0.000000,260.000000) scale(0.100000,-0.100000)"
fill="#000000" stroke="none">
<path d="M1349 2291 c-46 -15 -78 -42 -88 -74 -10 -34 -31 -351 -31 -478 l0
-76 -97 -6 c-54 -4 -175 -7 -269 -7 l-171 0 4 258 c5 254 4 257 -19 301 -36
69 -72 84 -188 77 -52 -3 -138 -16 -190 -29 l-95 -23 2 -64 c4 -110 5 -110 66
-102 28 4 70 7 92 7 l40 0 3 -225 c3 -207 -9 -703 -24 -996 l-7 -121 41 -6
c40 -5 221 15 240 27 6 3 13 154 17 335 4 181 10 334 14 340 5 7 92 13 269 18
l262 6 0 -259 c0 -285 9 -349 57 -412 14 -19 42 -41 62 -50 43 -18 138 -19
201 -2 38 10 218 78 228 86 2 1 -9 39 -25 84 -24 70 -31 80 -48 75 -150 -42
-168 -41 -186 13 -24 72 5 1055 36 1239 5 30 4 32 -42 47 -64 21 -122 27 -154
17z"/>
<path d="M1992 1431 c-71 -24 -121 -67 -154 -131 -37 -70 -39 -174 -5 -235 63
-111 206 -113 260 -3 30 61 -4 159 -50 144 -11 -4 -25 -18 -32 -32 -9 -19 -17
-25 -38 -22 -53 6 -52 107 1 157 53 50 156 46 210 -9 30 -30 31 -33 31 -123 0
-116 -8 -132 -135 -262 -74 -77 -100 -112 -113 -149 -29 -84 -20 -155 25 -203
32 -35 66 -29 123 21 l50 44 -38 22 c-33 20 -37 26 -37 63 0 39 5 46 72 107
191 171 230 229 232 349 1 90 -23 149 -84 204 -81 73 -208 96 -318 58z"/>
<path d="M2001 517 c-57 -29 -82 -105 -52 -160 53 -99 211 -57 211 56 0 51
-21 84 -66 103 -41 17 -62 17 -93 1z"/>
</g>
</svg>
